<svg xmlns="http://www.w3.org/2000/svg" xmlns:xlink="http://www.w3.org/1999/xlink" width="20" height="20" viewBox="0 0 20 20">
  <defs>
    <clipPath id="clip-path">
      <rect id="Rectangle_4374" data-name="Rectangle 4374" width="16" height="16" fill="#fff"/>
    </clipPath>
  </defs>
  <g id="share" transform="translate(1.77 2)">
    <rect id="Rectangle_4373" data-name="Rectangle 4373" width="20" height="20" transform="translate(-1.769 -2)" fill="rgba(255,255,255,0)"/>
    <g id="Group_9877" data-name="Group 9877" transform="translate(0.231)">
      <g id="Group_9876" data-name="Group 9876" clip-path="url(#clip-path)">
        <path id="Path_16864" data-name="Path 16864" d="M0,8.272V7.728a.594.594,0,0,0,.031-.094,2.813,2.813,0,0,1,1.82-2.312,2.916,2.916,0,0,1,2.973.4.232.232,0,0,0,.324.008Q7,4.52,8.86,3.319A.205.205,0,0,0,8.973,3.1,2.871,2.871,0,0,1,11.231.094c.162-.038.328-.063.492-.094h.384l.358.062a2.892,2.892,0,0,1,2.32,3.6,3,3,0,0,1-5.247.97c-.028.014-.049.022-.068.034Q7.687,5.825,5.9,6.983c-.09.058-.084.112-.056.2a2.574,2.574,0,0,1,0,1.622c-.041.126-.007.178.094.243.679.436,1.355.878,2.032,1.318L9.53,11.373l.095-.11a2.995,2.995,0,0,1,5.265,1.475,2.881,2.881,0,0,1-1.811,3.018,7.993,7.993,0,0,1-.971.244h-.314c-.051-.01-.1-.024-.153-.028A2.908,2.908,0,0,1,8.972,12.9a.205.205,0,0,0-.108-.22Q6.983,11.466,5.107,10.24a.178.178,0,0,0-.253.012A3,3,0,0,1,.1,8.733c-.04-.152-.07-.307-.1-.46M3,9.454A1.455,1.455,0,1,0,1.51,8,1.481,1.481,0,0,0,3,9.454m8.924-5.089a1.47,1.47,0,0,0,1.5-1.453,1.491,1.491,0,0,0-2.98.016,1.47,1.47,0,0,0,1.481,1.437m0,7.27a1.451,1.451,0,1,0,1.5,1.44,1.472,1.472,0,0,0-1.5-1.44" fill="#fff"/>
      </g>
    </g>
  </g>
</svg>
