<svg xmlns="http://www.w3.org/2000/svg" width="20" height="20" viewBox="0 0 20 20">
  <g id="volume-unmute" transform="translate(1.993 2.054)">
    <rect id="Rectangle_4524" data-name="Rectangle 4524" width="20" height="20" transform="translate(-1.993 -2.054)" fill="#fff" opacity="0"/>
    <path id="Path_16856" data-name="Path 16856" d="M344.271,230.043a.667.667,0,0,1-.47-1.138,2.39,2.39,0,0,0,0-3.381.667.667,0,1,1,.944-.944,3.727,3.727,0,0,1,0,5.265A.667.667,0,0,1,344.271,230.043Z" transform="translate(-332.671 -219.013)" fill="#fff"/>
    <path id="Path_16857" data-name="Path 16857" d="M390.16,188.226a.666.666,0,0,1-.472-1.138,5.273,5.273,0,0,0,0-7.455.667.667,0,0,1,.944-.943,6.608,6.608,0,0,1,0,9.341A.668.668,0,0,1,390.16,188.226Z" transform="translate(-376.566 -175.149)" fill="#fff"/>
    <path id="Path_16461" data-name="Path 16461" d="M8.631,0A1.561,1.561,0,0,1,9.4.415a1.435,1.435,0,0,1,.387.9c.006.083,0,.166,0,.25q0,6.416,0,12.833a1.408,1.408,0,0,1-1.131,1.583A.113.113,0,0,0,8.631,16H8.275a1.917,1.917,0,0,1-.851-.477c-1.146-1.015-2.3-2.021-3.447-3.034a.423.423,0,0,0-.305-.117c-.761.006-1.522,0-2.283,0a1.253,1.253,0,0,1-1.12-.583A3.811,3.811,0,0,1,0,11.125V4.875a3.113,3.113,0,0,1,.135-.442,1.309,1.309,0,0,1,1.253-.806q1.134-.009,2.268,0A.458.458,0,0,0,3.989,3.5C5.094,2.524,6.206,1.555,7.311.578A2.11,2.11,0,0,1,8.275,0ZM8.9,8q0-3.257,0-6.514a.5.5,0,0,0-.262-.5.438.438,0,0,0-.519.1Q6.338,2.657,4.554,4.219a.281.281,0,0,0-.107.236q0,3.546,0,7.092a.28.28,0,0,0,.108.236q.794.691,1.584,1.388l1.981,1.74a.431.431,0,0,0,.545.09.515.515,0,0,0,.234-.487q0-3.257,0-6.514M3.548,11.441V4.564c-.751,0-1.492,0-2.233,0a.45.45,0,0,0-.425.5q0,2.929,0,5.857a.462.462,0,0,0,.488.516c.361,0,.721,0,1.082,0H3.548" fill="#fff" stroke="#fff" stroke-width="0.7"/>
  </g>
</svg>
